<?xml version="1.0" encoding="utf-8"?>
<!-- Generator: Adobe Illustrator 24.0.1, SVG Export Plug-In . SVG Version: 6.00 Build 0)  -->
<svg version="1.1" id="Layer_1" xmlns="http://www.w3.org/2000/svg" xmlns:xlink="http://www.w3.org/1999/xlink" x="0px" y="0px"
	 viewBox="0 0 1000 144" style="enable-background:new 0 0 1000 144;" xml:space="preserve">
<style type="text/css">
	.st0{fill:#212529}
	.st1{fill:#ffc252;}
</style>
<g>
	<g>
		<g>
			<path class="st0" d="M185.95,46.23c-13.86,0-23.79,6.85-30.64,16.78V47.43H132.7v85.42h22.61V105.3
				c0-23.81,9.58-36.65,30.47-36.65h4.96l1.2-21.74C189.89,46.23,188.17,46.23,185.95,46.23z"/>
			<path class="st0" d="M244.15,114.72c-14.21,0-23.79-9.77-23.79-24.49c0-14.54,9.58-24.64,23.79-24.64
				c9.93,0,17.98,4.96,21.05,16.95l21.76-6.16c-5.66-19.18-22.94-31.51-42.81-31.51c-24.99,0-45.71,18.48-45.71,45.36
				s20.72,45.2,45.71,45.2c20.37,0,38-12.49,42.81-32.01l-20.89-5.31C262.13,109.91,254.08,114.72,244.15,114.72z"/>
			<path class="st0" d="M353.54,44.86c-9.3,0-16.98,2.44-23.12,7.03l5.33,17.33c3.32-2.49,7.43-3.64,12.15-3.64
				c10.44,0,17.28,8.05,17.28,20.02v47.25h22.61V80.81C387.79,59.59,374.08,44.86,353.54,44.86z M304.07,9.6v123.25h22.59V9.6
				H304.07z"/>
			<path class="st0" d="M547.15,45.38c-25.51,0-46.57,17.97-46.57,44.85s21.05,44.86,46.57,44.86c24.99,0,46.06-17.98,46.06-44.86
				S572.15,45.38,547.15,45.38z M547.15,115.74c-12.32,0-24.64-9.58-24.64-25.51c0-15.91,12.32-25.51,24.64-25.51
				c11.82,0,24.14,9.6,24.14,25.51C571.29,106.15,558.97,115.74,547.15,115.74z"/>
			<path class="st0" d="M490.46,94.66c0-8.65-0.47-14.81-1.41-18.75c-1.08-5.84-3.27-11.02-6.51-15.41
				c-3.38-4.63-8.33-8.44-14.72-11.33c-6.35-2.87-13-4.32-19.77-4.32c-13.42,0-24.45,4.4-32.8,13.06
				c-8.33,8.65-12.55,20.04-12.55,33.84c0,14.04,4.21,25.14,12.51,32.99c8.28,7.83,18.51,11.8,30.41,11.8
				c4.82,0,9.21-0.43,13.05-1.28c7.21-1.51,13.36-4.47,18.25-8.78c2.94-2.49,5.63-5.74,7.99-9.65c2.38-3.94,3.8-7.6,4.23-10.88
				l0.22-1.71H471.2l-0.33,1.06c-1.08,3.46-2.93,6.54-5.52,9.16c-4.53,4.54-10.74,6.84-18.42,6.84c-8.2,0-14.3-2.4-18.14-7.15
				c-3.67-4.54-5.77-10.59-6.26-18h67.93V94.66z M422.99,81.96c0.56-6.07,2.96-11.17,7.14-15.2c4.6-4.43,10.15-6.58,16.97-6.58
				c9.52,0,16.1,3.1,20.12,9.47c1.96,3.11,3.3,7.25,3.99,12.31H422.99z"/>
		</g>
		<g>
			<polygon class="st0" points="49.34,18.15 -0.31,132.85 24.87,132.85 71.08,18.15 			"/>
			<polygon class="st1" points="77.28,32.48 66.3,61.08 85.62,108.37 85.64,108.37 88.69,115.9 95.57,132.85 120.73,132.85 			"/>
		</g>
	</g>
</g>
<path class="st1" d="M614.14,135.53V8.47h50.48c14.81,0,25.5,4.48,31.76,13.33c3.67,5.23,5.54,11.35,5.54,18.18
	c0,7.99-2.3,14.63-6.84,19.74c-1.66,1.91-3.88,3.72-6.6,5.42l-3.19,1.98l3.43,1.54c4.61,2.07,8.23,4.36,10.77,6.8
	c5.69,5.51,8.57,13.23,8.57,22.94c0,8.15-2.59,15.63-7.7,22.24c-7.64,9.88-19.95,14.88-36.6,14.88H614.14z M631.09,120.73h32.92
	c10.48,0,18.05-3.07,22.52-9.14c2.8-3.83,4.22-8.53,4.22-13.97c0-9.15-4.15-15.47-12.32-18.79c-4.35-1.78-10.19-2.68-17.35-2.68
	h-29.98V120.73z M631.09,62.14h27.13c7.22,0,12.91-1.02,16.92-3.02c6.29-3.14,9.47-8.89,9.47-17.07c0-8.23-3.39-13.86-10.08-16.72
	c-3.79-1.6-9.48-2.41-16.92-2.41h-26.52V62.14z"/>
<path class="st1" d="M759.94,133.26c-19.72,0-40.12-16.03-40.12-42.86c0-26.82,20.4-42.85,40.12-42.85
	c11.99,0,22.15,3.99,29.37,11.53l3.44,3.59V49.94h15.04v80.92h-15.04v-12.74l-3.45,3.6C782.09,129.27,771.93,133.26,759.94,133.26z
	 M761.98,62.09c-15.94,0-27.07,11.64-27.07,28.31c0,16.68,11.13,28.32,27.07,28.32c13.39,0,27.24-10.59,27.24-28.32
	C789.22,72.67,775.37,62.09,761.98,62.09z"/>
<path class="st1" d="M955.01,135.53c-11.5,0-21.38-3.83-29.36-11.38c-7.98-7.55-12.02-18.27-12.02-31.89
	c0-13.42,4.08-24.45,12.12-32.81c8.04-8.35,18.71-12.59,31.71-12.59c6.55,0,12.99,1.41,19.15,4.19c6.13,2.77,10.87,6.4,14.08,10.8
	c3.09,4.19,5.19,9.15,6.22,14.76l0.02,0.1c0.9,3.78,1.35,9.67,1.37,18.01h-68.78l0.14,2.13c0.5,7.54,2.59,13.22,6.8,18.42
	c4.28,5.29,10.97,7.96,19.89,7.96c8.32,0,15.06-2.52,20.03-7.49c2.39-2.42,4.63-4.92,5.93-8.85h14.61c-0.48,2.9-1.8,6.16-3.93,9.69
	c-2.28,3.77-4.85,6.88-7.65,9.26c-4.71,4.16-10.61,6.99-17.56,8.44C964.02,135.11,959.74,135.53,955.01,135.53z M956.5,58.34
	c-7.43,0-13.49,2.36-18.53,7.21c-4.58,4.4-7.21,9.99-7.82,16.62l-0.2,2.19h53.21l-0.31-2.27c-0.73-5.4-2.19-9.86-4.32-13.24
	C974.07,61.77,966.86,58.34,956.5,58.34z"/>
<path class="st1" d="M863.42,134c-19.9,0-33.58-8.75-36.06-22.92l15.34-3.25c1.74,9,9.77,14.13,22.27,14.13
	c10.79,0,18.04-5.04,18.04-12.54c0-8.63-9.38-10.66-12.46-11.33l-18.51-3.78c-10.07-2.22-22.1-7.83-22.1-21.88
	c0-15.33,12.98-25.62,32.3-25.62c17.37,0,30.66,8.69,34.26,22.26l-14.45,3.07c-2.03-8.45-9.69-13.64-20.33-13.64
	c-9.91,0-16.32,4.86-16.32,12.39c0,7.39,6.42,9.7,11.25,10.81l20.21,4.44c13.4,2.86,21.08,10.78,21.08,21.71
	C897.94,123.98,884.71,134,863.42,134z"/>
</svg>
